<svg xmlns="http://www.w3.org/2000/svg" width="264" height="436" viewBox="0 0 264 436">
<g>
<path d="M 0.00 0.00 L 264.00 0.00 L 264.00 436.00 L 0.00 436.00 ZM 27.64 409.51 C28.31,411.25 31.12,411.36 41.21,410.06 C67.54,406.64 67.99,406.63 92.18,408.45 C127.21,411.09 140.41,411.49 143.98,410.01 C145.65,409.32 148.36,407.22 150.00,405.34 C152.55,402.44 153.00,401.11 153.00,396.45 C153.00,385.07 143.95,358.38 135.61,345.18 C130.00,336.28 134.68,339.04 142.74,349.37 L 144.98 352.24 L 153.73 349.51 C158.55,348.01 165.12,345.45 168.34,343.83 C171.57,342.20 174.39,341.06 174.62,341.29 C174.85,341.52 173.91,344.14 172.53,347.10 C170.33,351.83 170.02,353.87 170.00,363.50 C169.98,376.58 168.75,384.98 165.44,394.58 C160.84,407.92 161.89,409.38 176.41,409.78 C208.16,410.67 208.50,410.66 208.50,408.54 C208.50,407.01 206.97,406.06 201.50,404.19 C194.29,401.72 184.43,395.79 182.62,392.82 C181.84,391.54 182.87,387.85 186.92,377.32 C194.14,358.59 201.89,336.45 203.08,331.12 C204.27,325.83 203.04,321.32 199.49,317.99 C194.45,313.26 172.02,311.57 153.00,314.50 C137.45,316.90 137.13,316.72 141.02,308.14 C142.99,303.81 150.58,293.86 152.50,293.11 C154.36,292.38 162.12,283.53 164.66,279.25 C167.03,275.26 167.47,275.00 171.65,275.00 C181.82,275.00 199.31,271.05 210.40,266.25 C213.56,264.88 214.76,263.53 216.69,259.17 C218.89,254.20 222.49,237.22 224.88,220.63 C225.70,214.86 226.69,212.52 231.00,206.13 L 236.14 198.50 L 235.89 188.50 C235.69,180.28 236.15,176.45 238.50,167.00 C240.97,157.03 241.35,153.57 241.36,141.00 C241.38,123.84 239.65,114.22 233.91,99.50 C226.06,79.35 210.68,59.45 195.00,49.13 C191.98,47.13 189.27,45.26 189.00,44.95 C187.78,43.59 170.98,35.60 166.00,34.01 C152.33,29.63 144.79,28.51 129.00,28.52 C110.67,28.53 101.35,30.19 86.55,36.10 C58.91,47.14 36.81,68.64 24.92,96.07 C18.84,110.08 16.96,119.03 16.32,137.00 C15.70,154.52 17.16,165.96 21.51,177.66 C23.30,182.48 24.19,187.21 24.52,193.65 C25.09,205.11 25.87,207.13 32.37,213.97 C35.94,217.74 39.96,223.97 44.96,233.50 C52.27,247.43 58.99,257.87 62.95,261.45 C64.30,262.67 68.07,263.79 73.76,264.64 C85.28,266.37 90.07,266.33 97.75,264.40 C101.26,263.52 104.44,263.11 104.81,263.48 C105.44,264.11 104.51,264.99 99.76,268.29 C97.84,269.63 95.84,277.91 93.07,296.00 C91.83,304.11 90.32,309.71 87.94,315.00 C84.93,321.70 84.57,323.46 84.54,331.50 C84.52,339.59 84.81,341.03 87.42,345.76 C89.02,348.65 92.23,352.48 94.55,354.26 C96.87,356.04 100.51,360.20 102.63,363.50 C104.75,366.80 110.20,373.37 114.74,378.10 C119.29,382.83 123.00,386.93 123.00,387.21 C123.00,387.48 120.65,387.10 117.78,386.35 C109.54,384.22 103.91,384.69 92.24,388.52 C86.34,390.45 78.55,392.31 74.93,392.64 C68.69,393.22 68.24,393.12 66.30,390.65 C63.53,387.14 59.52,385.67 56.68,387.13 C55.48,387.75 52.47,390.41 50.00,393.03 C47.12,396.08 44.12,398.18 41.67,398.84 C36.49,400.25 26.89,407.55 27.64,409.51 ZM 165.06 268.30 C163.29,269.78 161.32,270.98 160.67,270.96 C155.57,270.79 148.62,261.61 149.18,255.80 L 149.50 252.50 L 153.29 258.69 C158.08,266.52 160.09,267.27 164.61,262.90 C166.72,260.85 169.05,259.58 170.75,259.55 C172.87,259.51 173.86,258.71 175.16,256.00 C176.08,254.07 179.58,249.66 182.92,246.20 C186.26,242.73 189.02,239.13 189.04,238.20 C189.06,237.26 191.09,235.22 193.56,233.66 C196.03,232.09 201.19,227.93 205.03,224.41 C208.87,220.88 212.44,218.00 212.96,218.00 C214.25,218.00 211.80,224.67 207.54,232.81 C205.61,236.49 203.18,241.98 202.13,245.00 C200.90,248.54 199.74,250.38 198.86,250.16 C198.11,249.97 195.25,249.59 192.50,249.31 C187.78,248.84 187.31,249.01 184.03,252.43 C182.12,254.42 179.65,257.95 178.53,260.27 C176.73,264.02 176.03,264.56 172.38,265.05 C170.00,265.37 166.92,266.73 165.06,268.30 ZM 77.18 243.90 C74.20,245.50 73.42,245.29 71.54,242.41 C69.18,238.82 70.32,238.28 75.13,240.72 C78.97,242.67 79.10,242.87 77.18,243.90 Z" fill="rgb(9,9,8)"/>
<path d="M 119.50 218.42 C124.80,218.80 148.78,218.21 153.00,217.59 C154.38,217.39 157.09,216.53 159.04,215.69 C160.99,214.84 165.49,213.84 169.04,213.46 C172.76,213.07 177.20,211.82 179.50,210.53 C181.70,209.29 186.10,207.32 189.27,206.14 C192.45,204.97 197.29,202.24 200.03,200.07 C202.77,197.90 206.02,195.81 207.26,195.42 C211.17,194.18 228.96,179.26 229.02,177.17 C229.03,176.80 231.25,174.12 233.95,171.21 C236.92,168.03 238.75,165.24 239.85,161.17 C239.49,162.91 239.04,164.80 238.50,167.00 C236.15,176.45 235.69,180.28 235.89,188.50 L 236.14 198.50 L 231.00 206.13 C228.47,209.89 227.08,212.25 226.20,214.73 C227.08,212.25 228.46,209.90 230.97,206.16 C236.03,198.64 236.08,198.51 235.79,191.61 C235.49,184.38 233.65,181.58 232.42,186.48 C231.55,189.94 221.58,206.46 217.39,211.38 C215.57,213.51 214.16,215.54 214.25,215.88 C214.44,216.61 213.61,219.24 212.22,222.66 C213.29,219.80 213.63,218.00 212.96,218.00 C212.44,218.00 208.87,220.88 205.03,224.41 C201.19,227.93 196.03,232.09 193.56,233.66 C191.09,235.22 189.06,237.26 189.04,238.20 C189.03,238.41 188.89,238.75 188.63,239.20 C189.01,238.12 188.93,237.06 188.74,235.39 C187.60,225.24 179.02,217.17 168.04,215.93 C164.99,215.59 162.27,215.60 162.00,215.96 C161.73,216.32 160.08,217.19 158.35,217.89 C154.23,219.55 151.56,222.49 149.10,228.04 C144.60,238.20 136.96,241.08 124.26,237.39 C117.34,235.37 109.69,235.92 104.12,238.82 C101.43,240.22 98.08,241.01 94.72,241.04 C91.85,241.05 86.57,241.76 83.00,242.60 C80.52,243.18 78.67,243.61 77.24,243.87 C79.10,242.87 78.94,242.65 75.13,240.72 C71.62,238.93 70.06,238.74 70.40,240.17 C69.70,239.11 69.04,238.30 68.73,238.16 C68.31,237.98 63.62,234.15 58.31,229.66 C47.40,220.44 37.02,208.20 30.42,196.75 C27.96,192.49 25.46,189.00 24.87,189.00 C24.57,189.00 24.36,189.39 24.27,190.16 C23.82,185.41 22.96,181.57 21.51,177.66 C19.11,171.20 17.59,164.82 16.81,157.45 C16.81,157.47 16.82,157.48 16.82,157.50 C19.81,169.24 22.21,173.96 26.90,177.34 C29.43,179.16 34.88,183.64 39.02,187.29 C43.15,190.95 48.55,194.99 51.02,196.29 C53.48,197.58 58.92,200.53 63.10,202.83 C77.27,210.63 100.45,217.04 119.50,218.42 ZM 34.83 77.93 C47.40,59.20 65.34,44.57 86.55,36.10 C65.46,44.53 47.42,59.38 34.83,77.93 ZM 16.29 137.75 C16.30,137.50 16.31,137.25 16.32,137.00 C16.58,129.67 17.05,123.84 17.92,118.56 C17.16,123.85 16.58,130.97 16.29,137.75 ZM 24.89 199.16 C25.80,206.34 26.86,207.97 31.90,213.39 C32.59,214.14 33.28,214.93 33.98,215.80 C33.43,215.14 32.89,214.53 32.37,213.97 C27.08,208.40 25.58,206.03 24.89,199.16 ZM 240.90 127.89 C240.05,117.98 237.98,109.92 233.91,99.50 C238.02,110.03 240.07,117.95 240.90,127.89 ZM 165.06 268.30 C163.29,269.78 161.41,271.00 160.87,271.00 C160.12,271.00 159.31,270.79 158.49,270.41 C159.24,270.74 159.97,270.94 160.67,270.96 C161.32,270.98 163.29,269.78 165.06,268.30 ZM 205.28 237.44 C203.96,240.32 202.77,243.18 202.14,245.00 C201.21,247.66 200.33,249.35 199.57,249.94 C200.33,249.35 201.21,247.66 202.13,245.00 C202.79,243.10 203.99,240.23 205.28,237.44 ZM 183.12 245.99 C183.05,246.06 182.99,246.13 182.92,246.20 C182.88,246.24 182.84,246.28 182.81,246.32 C182.88,246.24 182.96,246.16 183.03,246.08 Z" fill="rgb(150,61,5)"/>
<path d="M 119.50 218.42 C100.45,217.04 77.27,210.63 63.10,202.83 C58.92,200.53 53.48,197.58 51.02,196.29 C48.55,194.99 43.15,190.95 39.02,187.29 C34.88,183.64 29.43,179.16 26.90,177.34 C22.21,173.96 19.81,169.24 16.82,157.50 C16.82,157.48 16.81,157.47 16.81,157.45 C16.25,152.14 16.08,146.32 16.24,139.59 C16.53,141.43 17.20,142.93 18.42,145.42 C19.91,148.46 22.11,151.75 23.31,152.73 C24.52,153.70 26.83,156.30 28.46,158.50 C45.04,180.90 80.34,200.20 111.50,203.91 C121.36,205.08 138.15,205.11 147.00,203.97 C154.93,202.95 174.81,198.30 176.50,197.06 C177.05,196.66 179.07,195.74 181.00,195.00 C184.65,193.62 192.81,189.02 201.68,183.37 C210.33,177.86 230.31,157.42 233.82,150.50 C235.49,147.20 238.05,143.24 239.52,141.70 L 241.36 139.76 C241.36,140.17 241.36,140.58 241.36,141.00 C241.36,150.79 241.12,155.05 239.85,161.17 C238.75,165.24 236.92,168.03 233.95,171.21 C231.25,174.12 229.03,176.80 229.02,177.17 C228.96,179.26 211.17,194.18 207.26,195.42 C206.02,195.81 202.77,197.90 200.03,200.07 C197.29,202.24 192.45,204.97 189.27,206.14 C186.10,207.32 181.70,209.29 179.50,210.53 C177.20,211.82 172.76,213.07 169.04,213.46 C165.49,213.84 160.99,214.84 159.04,215.69 C157.09,216.53 154.38,217.39 153.00,217.59 C148.78,218.21 124.80,218.80 119.50,218.42 ZM 172.34 216.80 C167.85,215.60 162.99,215.82 158.50,217.88 C156.66,218.73 155.24,219.55 154.04,220.57 C155.30,219.41 156.71,218.55 158.35,217.89 C160.08,217.19 161.73,216.32 162.00,215.96 C162.27,215.60 164.99,215.59 168.04,215.93 C169.52,216.10 170.95,216.39 172.34,216.80 ZM 212.96 65.23 C207.35,59.18 199.77,52.26 195.00,49.13 C201.18,53.20 207.32,58.75 212.96,65.23 ZM 17.84 119.10 C17.87,118.92 17.90,118.74 17.92,118.56 C18.96,112.31 20.56,106.83 23.06,100.52 C20.78,106.53 19.02,112.75 17.84,119.10 ZM 240.74 126.20 C240.10,121.50 239.11,115.97 238.26,112.52 C239.46,117.02 240.25,121.42 240.74,126.20 Z" fill="rgb(188,103,9)"/>
<path d="M 16.29 137.75 C16.57,131.20 17.12,124.33 17.84,119.10 C17.90,118.79 17.96,118.49 18.02,118.18 C18.08,118.96 19.68,121.33 21.62,123.50 C23.59,125.70 26.25,129.80 27.53,132.62 C28.81,135.44 33.08,141.74 37.00,146.62 C40.93,151.50 44.45,155.95 44.82,156.50 C46.03,158.29 59.33,168.60 65.50,172.53 C81.25,182.57 92.36,186.54 114.00,189.86 C120.54,190.86 142.91,190.63 148.50,189.50 C158.22,187.54 164.98,185.70 168.50,184.04 C170.70,183.00 175.43,180.78 179.00,179.10 C182.57,177.41 188.14,174.54 191.37,172.70 C198.71,168.52 217.05,151.31 221.87,144.08 C229.26,133.00 232.73,127.20 233.77,124.22 C234.36,122.54 235.82,120.18 237.01,118.99 C238.29,117.71 238.87,116.38 238.60,113.97 C239.36,117.40 240.19,122.11 240.74,126.20 C240.80,126.76 240.85,127.32 240.90,127.89 L 240.90 127.89 C241.20,131.51 241.34,135.39 241.36,139.76 L 239.52 141.70 C238.05,143.24 235.49,147.20 233.82,150.50 C230.31,157.42 210.33,177.86 201.68,183.37 C192.81,189.02 184.65,193.62 181.00,195.00 C179.07,195.74 177.05,196.66 176.50,197.06 C174.81,198.30 154.93,202.95 147.00,203.97 C138.15,205.11 121.36,205.08 111.50,203.91 C80.34,200.20 45.04,180.90 28.46,158.50 C26.83,156.30 24.52,153.70 23.31,152.73 C22.11,151.75 19.91,148.46 18.42,145.42 C17.20,142.93 16.53,141.43 16.24,139.59 C16.26,138.98 16.27,138.37 16.29,137.75 ZM 21.82 103.96 C22.21,102.81 22.63,101.66 23.06,100.52 C23.63,99.09 24.25,97.61 24.92,96.07 C24.93,96.03 24.95,95.99 24.97,95.95 C23.86,98.52 22.78,101.27 21.82,103.96 ZM 141.15 237.30 C144.52,235.59 147.11,232.53 149.09,228.06 C147.11,232.53 144.52,235.59 141.15,237.30 ZM 141.15 237.30 C137.38,239.21 132.63,239.43 126.67,238.02 C132.63,239.42 137.38,239.21 141.15,237.30 ZM 223.78 79.72 C220.50,74.57 216.84,69.68 212.95,65.22 L 212.96 65.23 C216.85,69.69 220.50,74.58 223.78,79.72 Z" fill="rgb(221,139,14)"/>
<path d="M 21.82 103.96 C22.78,101.27 23.86,98.52 24.97,95.95 C25.03,95.80 25.10,95.65 25.16,95.50 C21.86,103.25 21.20,107.31 24.44,100.48 C26.10,97.00 28.46,95.13 29.68,96.34 C30.00,96.67 30.45,98.64 30.68,100.72 C30.90,102.80 34.08,110.57 37.74,118.00 C43.42,129.52 45.64,132.88 52.95,140.90 C66.39,155.67 77.75,163.35 92.88,167.90 C98.17,169.50 104.75,171.48 107.50,172.30 C110.91,173.33 117.29,173.84 127.54,173.90 C141.84,174.00 143.18,173.83 154.70,170.55 C172.94,165.34 178.09,162.89 190.68,153.39 C200.47,146.00 202.98,143.50 207.55,136.60 C210.50,132.15 214.10,127.06 215.55,125.30 C217.96,122.37 223.21,108.73 225.96,98.25 C227.36,92.93 229.03,92.85 231.26,98.00 C232.85,101.67 234.75,103.21 234.49,100.99 C236.04,105.09 237.28,108.84 238.26,112.52 C238.37,112.97 238.48,113.45 238.60,113.97 C238.87,116.38 238.29,117.71 237.01,118.99 C235.82,120.18 234.36,122.54 233.77,124.22 C232.73,127.20 229.26,133.00 221.87,144.08 C217.05,151.31 198.71,168.52 191.37,172.70 C188.14,174.54 182.57,177.41 179.00,179.10 C175.43,180.78 170.70,183.00 168.50,184.04 C164.98,185.70 158.22,187.54 148.50,189.50 C142.91,190.63 120.54,190.86 114.00,189.86 C92.36,186.54 81.25,182.57 65.50,172.53 C59.33,168.60 46.03,158.29 44.82,156.50 C44.45,155.95 40.93,151.50 37.00,146.62 C33.08,141.74 28.81,135.44 27.53,132.62 C26.25,129.80 23.59,125.70 21.62,123.50 C19.68,121.33 18.08,118.96 18.02,118.18 C18.96,113.34 20.23,108.60 21.82,103.96 ZM 233.37 98.13 C233.27,98.05 233.18,98.00 233.10,98.00 C232.73,98.00 232.36,97.07 232.27,95.94 C232.26,95.74 232.20,95.49 232.11,95.18 C232.55,96.16 232.97,97.15 233.37,98.13 ZM 205.41 57.68 C201.54,54.13 197.62,50.85 195.00,49.13 C197.82,50.98 201.61,54.15 205.41,57.68 ZM 220.98 75.52 C220.43,74.77 219.86,73.97 219.32,73.20 C219.88,73.97 220.44,74.74 220.98,75.52 Z" fill="rgb(242,170,36)"/>
<path d="M 223.78 79.72 C226.96,84.70 229.78,89.91 232.11,95.18 C232.20,95.49 232.26,95.74 232.27,95.94 C232.36,97.07 232.73,98.00 233.10,98.00 C233.18,98.00 233.27,98.05 233.37,98.13 C233.55,98.59 233.74,99.04 233.91,99.50 C234.11,100.00 234.30,100.50 234.49,100.99 C234.75,103.21 232.85,101.67 231.26,98.00 C229.03,92.85 227.36,92.93 225.96,98.25 C223.21,108.73 217.96,122.37 215.55,125.30 C214.10,127.06 210.50,132.15 207.55,136.60 C202.98,143.50 200.47,146.00 190.68,153.39 C178.09,162.89 172.94,165.34 154.70,170.55 C143.18,173.83 141.84,174.00 127.54,173.90 C117.29,173.84 110.91,173.33 107.50,172.30 C104.75,171.48 98.17,169.50 92.88,167.90 C77.75,163.35 66.39,155.67 52.95,140.90 C45.64,132.88 43.42,129.52 37.74,118.00 C34.08,110.57 30.90,102.80 30.68,100.72 C30.45,98.64 30.00,96.67 29.68,96.34 C28.46,95.13 26.10,97.00 24.44,100.48 C21.20,107.31 21.86,103.25 25.16,95.50 C27.88,89.32 31.12,83.45 34.83,77.93 C36.01,76.18 37.25,74.47 38.53,72.78 C38.96,72.91 39.76,72.62 40.46,72.03 C43.71,69.34 44.84,71.48 45.30,81.19 C45.91,94.26 47.35,99.65 53.62,112.37 C58.44,122.15 60.22,124.62 68.27,132.73 C82.47,147.04 97.02,154.44 116.00,157.00 C125.75,158.31 142.34,157.36 151.50,154.96 C159.94,152.75 170.93,147.08 182.42,139.01 C187.48,135.46 190.16,132.70 192.42,128.75 C194.11,125.77 197.30,121.30 199.50,118.81 C206.36,111.04 212.49,91.12 211.86,78.67 C211.46,70.71 212.39,69.08 215.60,72.10 C218.15,74.49 219.36,74.14 218.37,71.91 C218.69,72.34 219.01,72.77 219.32,73.20 C219.86,73.97 220.43,74.77 220.98,75.52 C221.94,76.90 222.88,78.30 223.78,79.72 ZM 205.79 58.05 C201.76,54.33 197.64,50.86 195.00,49.13 C197.81,50.98 201.61,54.15 205.40,57.68 C205.53,57.80 205.66,57.92 205.79,58.05 ZM 48.69 61.17 C50.71,59.14 52.82,57.19 54.99,55.32 C52.89,57.15 50.80,59.09 48.69,61.17 Z" fill="rgb(250,198,88)"/>
<path d="M 205.79 58.05 C208.29,60.38 210.77,62.87 212.95,65.22 C214.81,67.35 216.62,69.59 218.37,71.91 C219.36,74.14 218.15,74.49 215.60,72.10 C212.39,69.08 211.46,70.71 211.86,78.67 C212.49,91.12 206.36,111.04 199.50,118.81 C197.30,121.30 194.11,125.77 192.42,128.75 C190.16,132.70 187.48,135.46 182.42,139.01 C170.93,147.08 159.94,152.75 151.50,154.96 C142.34,157.36 125.75,158.31 116.00,157.00 C97.02,154.44 82.47,147.04 68.27,132.73 C60.22,124.62 58.44,122.15 53.62,112.37 C47.35,99.65 45.91,94.26 45.30,81.19 C44.84,71.48 43.71,69.34 40.46,72.03 C39.76,72.62 38.96,72.91 38.53,72.78 C41.65,68.69 45.05,64.81 48.69,61.17 C50.80,59.09 52.89,57.15 54.99,55.32 C61.73,49.51 69.16,44.48 77.12,40.40 L 79.91 42.09 L 83.03 43.99 L 81.49 47.74 C80.64,49.81 79.13,52.62 78.13,54.00 C74.57,58.90 73.71,63.75 74.25,75.91 C74.83,89.05 77.12,96.74 81.97,101.81 C83.58,103.49 85.81,106.68 86.94,108.88 C89.00,112.93 92.09,115.40 104.00,122.55 C109.64,125.93 111.56,126.53 118.50,127.07 C122.90,127.41 127.78,127.76 129.35,127.85 C133.07,128.05 150.15,123.49 154.84,121.04 C161.70,117.46 178.00,99.49 178.00,95.50 C178.00,94.17 178.95,90.69 180.11,87.79 C181.96,83.15 182.16,81.12 181.70,71.39 C181.10,58.68 178.64,51.31 173.86,47.90 C170.00,45.15 170.12,42.20 174.17,40.79 L 177.33 39.69 L 175.15 37.92 C175.04,37.83 174.90,37.73 174.74,37.63 C181.09,40.51 188.22,44.08 189.00,44.95 C189.27,45.26 191.98,47.13 195.00,49.13 C197.64,50.86 201.76,54.33 205.79,58.05 ZM 166.71 34.25 C166.55,34.20 166.39,34.15 166.24,34.10 C157.77,31.51 149.41,29.77 141.18,28.86 C149.76,29.45 156.36,30.92 166.00,34.01 C166.21,34.07 166.45,34.16 166.71,34.25 ZM 94.70 33.11 C99.88,31.40 104.66,30.27 109.90,29.56 C104.76,30.38 99.69,31.57 94.70,33.11 Z" fill="rgb(254,223,141)"/>
<path d="M 94.70 33.11 C99.69,31.57 104.76,30.38 109.90,29.56 C115.41,28.81 121.44,28.52 129.00,28.52 C133.65,28.52 137.59,28.61 141.18,28.86 C149.41,29.77 157.77,31.51 166.24,34.10 C166.39,34.15 166.55,34.20 166.71,34.25 C168.60,34.92 171.57,36.19 174.74,37.63 C174.90,37.73 175.04,37.83 175.15,37.92 L 177.33 39.69 L 174.17 40.79 C170.12,42.20 170.00,45.15 173.86,47.90 C178.64,51.31 181.10,58.68 181.70,71.39 C182.16,81.12 181.96,83.15 180.11,87.79 C178.95,90.69 178.00,94.17 178.00,95.50 C178.00,99.49 161.70,117.46 154.84,121.04 C150.15,123.49 133.07,128.05 129.35,127.85 C127.78,127.76 122.90,127.41 118.50,127.07 C111.56,126.53 109.64,125.93 104.00,122.55 C92.09,115.40 89.00,112.93 86.94,108.88 C85.81,106.68 83.58,103.49 81.97,101.81 C77.12,96.74 74.83,89.05 74.25,75.91 C73.71,63.75 74.57,58.90 78.13,54.00 C79.13,52.62 80.64,49.81 81.49,47.74 L 83.03 43.99 L 79.91 42.09 L 77.12 40.40 C80.19,38.82 83.33,37.39 86.55,36.10 C89.44,34.95 92.12,33.96 94.70,33.11 ZM 122.24 91.34 C125.08,92.80 128.11,94.00 128.96,94.00 C130.99,94.00 140.84,87.40 143.78,84.08 C145.19,82.49 145.86,80.73 145.54,79.50 C145.26,78.40 145.02,75.15 145.01,72.28 C145.00,67.91 144.51,66.51 141.94,63.59 C137.73,58.79 129.73,56.41 123.73,58.18 C118.19,59.80 113.34,62.67 112.51,64.80 C111.55,67.27 110.60,73.93 110.60,78.24 C110.60,82.86 114.66,87.43 122.24,91.34 Z" fill="rgb(254,237,190)"/>
<path d="M 27.64 409.51 C26.89,407.55 36.49,400.25 41.67,398.84 C44.12,398.18 47.12,396.08 50.00,393.03 C52.47,390.41 55.48,387.75 56.68,387.13 C59.52,385.67 63.53,387.14 66.30,390.65 C68.24,393.12 68.69,393.22 74.93,392.64 C78.55,392.31 86.34,390.45 92.24,388.52 C103.91,384.69 109.54,384.22 117.78,386.35 C120.65,387.10 123.00,387.48 123.00,387.21 C123.00,386.93 119.29,382.83 114.74,378.10 C110.20,373.37 104.75,366.80 102.63,363.50 C100.51,360.20 96.87,356.04 94.55,354.26 C92.23,352.48 89.02,348.65 87.42,345.76 C84.81,341.03 84.52,339.59 84.54,331.50 C84.57,323.46 84.93,321.70 87.94,315.00 C90.32,309.71 91.83,304.11 93.07,296.00 C95.84,277.91 97.84,269.63 99.76,268.29 C104.51,264.99 105.44,264.11 104.81,263.48 C104.44,263.11 101.26,263.52 97.75,264.40 C90.07,266.33 85.28,266.37 73.76,264.64 C68.07,263.79 64.30,262.67 62.95,261.45 C59.00,257.88 52.28,247.44 44.94,233.50 C39.84,223.80 35.84,217.63 31.90,213.39 C26.05,207.11 25.57,205.92 24.45,195.25 C24.02,191.07 24.16,189.00 24.87,189.00 C25.46,189.00 27.96,192.49 30.42,196.75 C37.02,208.20 47.40,220.44 58.31,229.66 C63.62,234.15 68.31,237.98 68.73,238.16 C69.16,238.35 70.27,239.85 71.21,241.50 C73.10,244.82 73.44,244.85 83.00,242.60 C86.57,241.76 91.85,241.05 94.72,241.04 C98.08,241.01 101.43,240.22 104.12,238.82 C109.69,235.92 117.34,235.37 124.26,237.39 C136.95,241.08 144.60,238.20 149.09,228.06 C151.67,222.23 153.62,220.12 158.50,217.88 C171.33,211.99 187.13,221.14 188.74,235.39 C189.20,239.51 189.00,239.90 183.03,246.08 C179.63,249.61 176.08,254.07 175.16,256.00 C173.86,258.71 172.87,259.51 170.75,259.55 C169.05,259.58 166.72,260.85 164.61,262.90 C160.09,267.27 158.08,266.52 153.29,258.69 L 149.50 252.50 L 149.18 255.80 C148.62,261.63 155.83,271.00 160.87,271.00 C161.41,271.00 163.29,269.78 165.06,268.30 C166.92,266.73 170.00,265.37 172.38,265.05 C176.03,264.56 176.73,264.02 178.53,260.27 C179.65,257.95 182.12,254.42 184.03,252.43 C187.31,249.01 187.78,248.84 192.50,249.31 C195.25,249.59 198.11,249.97 198.86,250.16 C199.74,250.38 200.91,248.54 202.14,245.00 C203.18,241.98 205.78,236.12 207.90,232.00 C211.59,224.83 214.59,217.20 214.25,215.88 C214.16,215.54 215.57,213.51 217.39,211.38 C221.58,206.46 231.55,189.94 232.42,186.48 C233.65,181.58 235.49,184.38 235.79,191.61 C236.08,198.51 236.03,198.64 230.97,206.16 C226.70,212.52 225.70,214.87 224.88,220.63 C222.49,237.22 218.89,254.20 216.69,259.17 C214.76,263.53 213.56,264.88 210.40,266.25 C199.31,271.05 181.82,275.00 171.65,275.00 C167.47,275.00 167.03,275.26 164.66,279.25 C162.12,283.53 154.36,292.38 152.50,293.11 C150.58,293.86 142.99,303.81 141.02,308.14 C137.13,316.72 137.45,316.90 153.00,314.50 C172.02,311.57 194.45,313.26 199.49,317.99 C203.04,321.32 204.27,325.83 203.08,331.12 C201.89,336.45 194.14,358.59 186.92,377.32 C182.87,387.85 181.84,391.54 182.62,392.82 C184.43,395.79 194.29,401.72 201.50,404.19 C206.97,406.06 208.50,407.01 208.50,408.54 C208.50,410.66 208.16,410.67 176.41,409.78 C161.89,409.38 160.84,407.92 165.44,394.58 C168.75,384.98 169.98,376.58 170.00,363.50 C170.02,353.87 170.33,351.83 172.53,347.10 C173.91,344.14 174.85,341.52 174.62,341.29 C174.39,341.06 171.57,342.20 168.34,343.83 C165.12,345.45 158.55,348.01 153.73,349.51 L 144.98 352.24 L 142.74 349.37 C134.68,339.04 130.00,336.28 135.61,345.18 C143.95,358.38 153.00,385.07 153.00,396.45 C153.00,401.11 152.55,402.44 150.00,405.34 C148.36,407.22 145.65,409.32 143.98,410.01 C140.41,411.49 127.21,411.09 92.18,408.45 C67.99,406.63 67.54,406.64 41.21,410.06 C31.12,411.36 28.31,411.25 27.64,409.51 ZM 122.24 91.34 C114.66,87.43 110.60,82.86 110.60,78.24 C110.60,73.93 111.55,67.27 112.51,64.80 C113.34,62.67 118.19,59.80 123.73,58.18 C129.73,56.41 137.73,58.79 141.94,63.59 C144.51,66.51 145.00,67.91 145.01,72.28 C145.02,75.15 145.26,78.40 145.54,79.50 C145.86,80.73 145.19,82.49 143.78,84.08 C140.84,87.40 130.99,94.00 128.96,94.00 C128.11,94.00 125.08,92.80 122.24,91.34 Z" fill="rgb(253,253,252)"/>
</g>
</svg>